<?xml version="1.0" standalone="no"?><!DOCTYPE svg PUBLIC "-//W3C//DTD SVG 1.1//EN" "http://www.w3.org/Graphics/SVG/1.1/DTD/svg11.dtd"><svg class="icon" width="200px" height="200.00px" viewBox="0 0 1024 1024" version="1.1" xmlns="http://www.w3.org/2000/svg"><path fill="#333333" d="M630.587077 502.902154C630.587077 545.398154 570.919385 590.769231 531.692308 630.153846c-8.585846 8.625231-30.129231 31.606154-64.571077 68.923077v68.411077h241.92V163.387077H462.158769c-15.891692 0-29.341538 12.228923-29.341538 26.702769v247.059692l7.108923-4.706461c5.592615-3.682462 38.203077-25.915077 79.753846-27.332923C561.230769 403.692308 595.633231 428.032 610.461538 443.076923c14.828308 15.044923 20.125538 39.384615 20.125539 59.825231z m122.092308 264.585846h78.729846c15.911385 0 29.341538-12.209231 29.341538-26.702769V190.089846c0-14.473846-13.430154-26.702769-29.341538-26.702769h-78.729846v604.100923zM118.153846 826.387692V470.508308c0-8.388923 5.12-15.812923 13.075692-18.884923l0.393847-0.137847 0.649846-0.393846 255.448615-220.356923V190.089846C387.741538 150.429538 421.12 118.153846 462.178462 118.153846H831.409231C872.448 118.153846 905.846154 150.429538 905.846154 190.089846v550.695385c0 39.68-33.398154 71.955692-74.436923 71.955692H462.178462c-12.996923 0-38.793846-0.393846-38.793847-15.202461l-1.45723-75.500308-116.04677 139.145846a20.224 20.224 0 0 1-28.612923-2.225231 20.302769 20.302769 0 0 1-4.844307-14.848 20.283077 20.283077 0 0 1 7.049846-13.902769c73.393231-84.027077 118.075077-134.301538 134.065231-150.823385 23.985231-24.772923 35.150769-39.384615 78.76923-78.76923s49.230769-39.384615 68.923077-59.076923S590.769231 492.307692 571.076923 472.615385s-31.074462-21.622154-50.747077-21.622154c-37.297231 0-70.242462 30.306462-71.640615 31.606154l-20.224 18.077538-122.052923 126.877539c-3.84 3.977846-9.038769 6.183385-14.592 6.183384-5.297231 0-10.318769-2.028308-14.119385-5.710769a20.48 20.48 0 0 1-0.512-28.829539l110.532923-114.825846v-199.876923L158.779077 481.949538v364.130462c0 11.224615-9.117538 20.381538-20.322462 20.381538C127.271385 866.461538 118.153846 837.632 118.153846 826.387692z" /></svg>