<?xml version="1.0" standalone="no"?><!DOCTYPE svg PUBLIC "-//W3C//DTD SVG 1.1//EN" "http://www.w3.org/Graphics/SVG/1.1/DTD/svg11.dtd"><svg class="icon" width="200px" height="200.00px" viewBox="0 0 1024 1024" version="1.1" xmlns="http://www.w3.org/2000/svg"><path fill="#333333" d="M856.9 258.4L769 170.7c-7-5.6-15.7-8.4-24.2-8.4-9.2 0-18.2 3.3-24.6 9.7L359.5 532.6c-1.8 1.7-3.1 3.8-3.8 5.9L295 714.2c-1.9 5.6-0.5 11.9 3.7 16 4.1 4.1 11.1 5.4 15.9 3.7l175.8-60.8c2.1-0.7 4.1-2 5.8-3.7l362.1-362.2c11.9-14.9 11.4-36-1.4-48.8zM334.6 694.2l2-5.6 40.2-116.5 79.9 79.9-122.1 42.2z m150.6-57.6l-93-93 286.4-286.4 93 93-286.4 286.4z m349.3-349.3l-41 41.1-93-93 2.1-2.1 40.9-40.3h1.2c1 0 2.1 0.2 3.3 0.6l1.2 0.7 86.3 86.5c0.7 1.7 0.3 4.4-1 6.5zM770.2 788.3c0 6.8-5.5 12.4-12.4 12.4H239.2c-6.8 0-12.4-5.5-12.4-12.4V270.9c0-6.8 5.5-12.4 12.4-12.4h312.1v-31H239.2c-23.9 0-43.4 19.4-43.4 43.4v517.4c0 23.9 19.5 43.4 43.4 43.4h518.6c23.9 0 43.4-19.4 43.4-43.4V477.4h-31v310.9z" /></svg>