<?xml version="1.0" standalone="no"?><!DOCTYPE svg PUBLIC "-//W3C//DTD SVG 1.1//EN" "http://www.w3.org/Graphics/SVG/1.1/DTD/svg11.dtd"><svg class="icon" width="200px" height="200.00px" viewBox="0 0 1024 1024" version="1.1" xmlns="http://www.w3.org/2000/svg"><path fill="#333333" d="M778.7 890H251.4c-32.5 0-60.9-22-68.9-53.5L80.3 436.7c-6.4-24.9 1.3-51.5 19.9-69.2 18.7-17.7 45.5-24 70.1-16.4L311 394.8c1.1 0.4 2.4-0.1 3-1.1l131.8-215.2c13.4-21.9 36.8-35.1 62.6-35.3h0.4c25.6 0 48.9 12.9 62.5 34.6l134.3 214.5c1.2 1.9 3.5 2.7 5.6 2.1l142.2-43.8c24.4-7.5 51-1.3 69.6 16.1 18.6 17.4 26.5 43.7 20.5 68.4l-95.6 400.2c-7.7 32.2-36.2 54.7-69.2 54.7z m-520.4-80h513.4l90.4-378.4-127.4 39.2c-36.7 11.3-76.5-3.5-96.9-36.1l-129-206-126.6 206.7c-19.8 32.3-58.8 47-94.9 35.7l-125.5-39L258.3 810z m618.6-382.9zM607 751.5H416.5c-20.3 0-36.7-16.5-36.7-36.7 0-20.3 16.5-36.8 36.7-36.8H607c20.3 0 36.8 16.5 36.8 36.8 0 20.2-16.5 36.7-36.8 36.7z" /></svg>