<?xml version="1.0" standalone="no"?><!DOCTYPE svg PUBLIC "-//W3C//DTD SVG 1.1//EN" "http://www.w3.org/Graphics/SVG/1.1/DTD/svg11.dtd"><svg class="icon" width="200px" height="200.00px" viewBox="0 0 1024 1024" version="1.1" xmlns="http://www.w3.org/2000/svg"><path fill="#333333" d="M588.88 144.816c-18.832 11.072-145.216 79.28-232.72 206.256-7.36 10.704-22.208 14.4-33.312 7.52a23.744 23.744 0 0 1-7.344-33.44 675.84 675.84 0 0 1 130.272-144.576 18.624 18.624 0 0 0-2.048-30.32c-2.784-1.728-5.696-3.52-8.72-5.424C294.432 56.592 10.72 144.976 52.08 440.208c34.72 247.888 224.336 381.12 349.04 443.024 18.72 9.28 63.504 28.768 111.04 28.768 49.088 0 90.816-18.992 109.328-28.16 124.672-61.6 315.456-194.912 350.304-443.632 41.36-295.216-232-384.144-382.912-295.392z" /></svg>