<?xml version="1.0" standalone="no"?><!DOCTYPE svg PUBLIC "-//W3C//DTD SVG 1.1//EN" "http://www.w3.org/Graphics/SVG/1.1/DTD/svg11.dtd"><svg class="icon" width="200px" height="164.37px" viewBox="0 0 1246 1024" version="1.1" xmlns="http://www.w3.org/2000/svg"><path fill="#333333" d="M0 356.530087V111.304348a111.304348 111.304348 0 0 1 111.304348-111.304348h1024a111.304348 111.304348 0 0 1 111.304348 111.304348v248.208695a166.956522 166.956522 0 1 0 0 327.234783V912.695652a111.304348 111.304348 0 0 1-111.304348 111.304348H111.304348a111.304348 111.304348 0 0 1-111.304348-111.304348V689.730783a166.956522 166.956522 0 1 0 0-333.178435zM66.738087 296.069565l5.542956 1.402435C171.720348 324.36313 244.869565 415.209739 244.869565 523.130435c0 107.920696-73.149217 198.789565-172.566261 225.658435l-5.565217 1.424695L66.782609 912.695652a44.521739 44.521739 0 0 0 41.182608 44.388174L111.304348 957.217391h1024a44.521739 44.521739 0 0 0 44.410435-41.182608L1179.826087 912.695652v-158.185739l-3.917913-0.601043c-109.32313-17.541565-193.335652-110.903652-196.34087-224.456348L979.478261 523.130435c0-116.402087 85.081043-212.925217 196.429913-230.778435l3.917913-0.556522V111.304348a44.521739 44.521739 0 0 0-41.182609-44.410435L1135.304348 66.782609H111.304348a44.521739 44.521739 0 0 0-44.388174 41.182608L66.782609 111.304348l-0.022261 184.765217z"  /><path fill="#333333" d="M389.832348 594.654609c38.822957-22.79513 72.303304-44.610783 100.441043-65.446957 28.137739-20.836174 52.001391-43.364174 71.590957-67.584h114.866087a337.986783 337.986783 0 0 0 75.330782 75.865044 496.573217 496.573217 0 0 0 96.166957 55.56313l16.562087-36.864c-60.549565-22.082783-108.098783-53.604174-142.647652-94.564174h120.742956v-34.192695H585.906087c8.904348-13.890783 16.562087-29.028174 22.973217-45.412174h219.046957v-34.192696h-107.386435a498.643478 498.643478 0 0 0 29.651478-33.925565c10.150957-12.644174 18.253913-23.952696 24.30887-33.925565l-30.987131-20.301914a784.13913 784.13913 0 0 1-29.117217 39.802435 290.54887 290.54887 0 0 1-30.72 33.925565l14.959304 14.425044H620.633043c1.424696-4.986435 2.849391-10.24 4.274087-15.760696 1.424696-5.520696 2.671304-11.130435 3.739827-16.829217 1.424696-6.41113 3.205565-15.137391 5.342608-26.178783 2.137043-11.041391 3.739826-21.014261 4.808348-29.918608l-38.466783-4.274087c-0.712348 3.561739-1.513739 8.192-2.404173 13.890782a1228.978087 1228.978087 0 0 1-6.144 35.528348c-1.068522 5.520696-1.958957 9.883826-2.671305 13.089391-2.137043 10.685217-4.808348 20.836174-8.013913 30.45287h-68.919652l20.836174-15.493565a246.739478 246.739478 0 0 0-10.685218-16.829218c-4.274087-6.233043-8.637217-12.466087-13.089391-18.69913a362.496 362.496 0 0 0-25.911652-32.322783l-28.850087 21.370435c5.342609 6.054957 12.109913 14.781217 20.301913 26.178783 8.192 11.397565 16.384 23.329391 24.576 35.795478h-88.153043v34.192696h157.072695c-7.123478 15.671652-16.205913 30.809043-27.247304 45.412174h-145.318957v34.192695h115.400348c-17.808696 17.808696-38.288696 34.726957-61.44 50.754783a943.193043 943.193043 0 0 1-80.13913 49.152l20.301913 33.124174z m48.083478 150.661565c26.35687-10.685217 48.706783-21.103304 67.049739-31.254261 18.342957-10.150957 33.836522-21.281391 46.480696-33.391304a151.841391 151.841391 0 0 0 30.72-41.405218c7.835826-15.493565 14.425043-34.103652 19.767652-55.830261h111.660522c-0.356174 3.561739-0.801391 8.45913-1.335652 14.692174s-1.157565 12.733217-1.869913 19.500522c-0.712348 6.767304-1.424696 13.178435-2.137044 19.233391l-1.602783 13.890783c-0.712348 8.192-2.048 14.781217-4.006956 19.767652-1.958957 4.986435-4.897391 8.815304-8.815304 11.486609-3.917913 2.671304-9.171478 4.630261-15.760696 5.876869-6.589217 1.246609-15.048348 2.226087-25.377391 2.938435l-47.549218 3.205565 13.890783 35.795479 50.754782-3.739826c13.178435-1.068522 24.30887-2.671304 33.391305-4.808348 9.082435-2.137043 16.562087-5.609739 22.438956-10.418087 5.87687-4.808348 10.329043-11.219478 13.356522-19.233391 3.027478-8.013913 5.075478-18.253913 6.144-30.72 0.356174-4.986435 1.068522-13.089391 2.137044-24.30887 1.068522-11.219478 2.137043-22.884174 3.205565-34.994087 1.068522-12.109913 1.958957-23.329391 2.671304-33.658435 0.712348-10.329043 1.246609-17.096348 1.602783-20.301913h-146.387479a350.297043 350.297043 0 0 0 3.205566-43.27513l-39.535305-1.602783a346.468174 346.468174 0 0 1-3.205565 44.877913h-90.290087v35.795478h83.344696a171.920696 171.920696 0 0 1-16.829218 41.405218 128.512 128.512 0 0 1-26.980173 32.322782 206.180174 206.180174 0 0 1-40.069566 26.713044c-15.671652 8.192-34.370783 16.205913-56.097391 24.041739l16.027826 37.398261z"  /></svg>