<?xml version="1.0" standalone="no"?><!DOCTYPE svg PUBLIC "-//W3C//DTD SVG 1.1//EN" "http://www.w3.org/Graphics/SVG/1.1/DTD/svg11.dtd"><svg class="icon" width="200px" height="200.00px" viewBox="0 0 1024 1024" version="1.1" xmlns="http://www.w3.org/2000/svg"><path fill="#333333" d="M888.5 761.7 756.4 761.7c-15.8 0-28.6-12.8-28.6-28.6l-0.3-336.8C725.7 278.5 630 188.6 512 188c-118 0.6-213.7 90.5-215.6 208.3l-0.2 292.2c0 0 36.9 127.4 124.8 112.6 6.7-22.3 30.3-30.7 45.5-30.7l92.6 0c31.6 0 57.2 25.6 57.2 57.2l0 17.9c0 31.6-25.6 57.2-57.2 57.2l-85.2 0c-24.2 0-44.8-15.2-53.2-36.5-1.4-0.8-12.8 0.2-24-2.2-86.7-31-124.7-102.7-124.7-102.7-1.5 0.3-3 0.5-4.5 0.5L135.5 761.8c-15.8 0-28.6-12.8-28.6-28.6L106.9 440c0-15.8 12.8-28.6 28.6-28.6l94.4 0c0-24.2-0.1-15.2-0.1-15.2 3.4-273.9 277.5-274.8 277.5-274.8 2.2-0.1 7.3-0.1 9.4 0 0 0 274.1 1 277.5 274.8 0 0 0-9.1-0.1 15.2l94.4 0c15.8 0 28.6 12.8 28.6 28.6l0 293.1C917.1 748.9 904.3 761.7 888.5 761.7L888.5 761.7zM235.8 495.2c0-9.7-5.2-17.6-11.6-17.6l-48.8 0c-6.4 0-11.6 7.9-11.6 17.6l0 180.5c0 9.8 5.2 17.6 11.6 17.6l48.8 0c6.4 0 11.6-7.9 11.6-17.6L235.8 495.2 235.8 495.2zM860.2 495.2c0-9.7-5.2-17.6-11.6-17.6l-48.7 0c-6.4 0-11.7 7.9-11.7 17.6l0 180.5c0 9.8 5.3 17.6 11.7 17.6l48.7 0c6.4 0 11.6-7.9 11.6-17.6L860.2 495.2 860.2 495.2zM860.2 495.2" /></svg>