<?xml version="1.0" standalone="no"?><!DOCTYPE svg PUBLIC "-//W3C//DTD SVG 1.1//EN" "http://www.w3.org/Graphics/SVG/1.1/DTD/svg11.dtd"><svg class="icon" width="200px" height="200.00px" viewBox="0 0 1024 1024" version="1.1" xmlns="http://www.w3.org/2000/svg"><path fill="#333333" d="M736 579.2m-44.8 0a44.8 44.8 0 1 0 89.6 0 44.8 44.8 0 1 0-89.6 0Z"  /><path fill="#333333" d="M870.4 467.2H713.6c-61.9 0-112 50.1-112 112s50.1 112 112 112h156.8c49.5 0 89.6-40.1 89.6-89.6v-44.8c0-49.5-40.1-89.6-89.6-89.6z m44.8 134.4c0 24.7-20.1 44.8-44.8 44.8H713.6c-37.1 0-67.2-30.1-67.2-67.2s30.1-67.2 67.2-67.2h156.8c24.7 0 44.8 20.1 44.8 44.8v44.8z"  /><path fill="#333333" d="M870.4 713.6c-12.4 0-22.4 10-22.4 22.4v44.8c0 49.5-40.1 89.6-89.6 89.6h-560c-49.5 0-89.6-40.1-89.6-89.6V377.6c0-49.5 40.1-89.6 89.6-89.6h560c49.5 0 89.6 40.1 89.6 89.6v44.8c0 12.4 10 22.4 22.4 22.4 12.4 0 22.4-10 22.4-22.4v-44.8c0-73.9-60.5-134.4-134.4-134.4H650l-41.9-67.3c-24.8-43-70.2-67.1-116.8-67.1-22.8 0-45.8 5.8-66.8 17.9L191.2 243.6C120.6 247.3 64 306.1 64 377.6v403.2c0 73.9 60.5 134.4 134.4 134.4h560c73.9 0 134.4-60.5 134.4-134.4V736c0-12.4-10-22.4-22.4-22.4zM445.7 166.2c0.4-0.2 0.8-0.4 1.2-0.7 13.5-7.8 28.8-11.9 44.4-11.9 32.2 0 62.1 17.1 78 44.7 0.6 1.1 1.3 2.2 2.1 3.2l24.7 41.7H287.7l158-77z"  /></svg>