<?xml version="1.0" standalone="no"?><!DOCTYPE svg PUBLIC "-//W3C//DTD SVG 1.1//EN" "http://www.w3.org/Graphics/SVG/1.1/DTD/svg11.dtd"><svg class="icon" width="200px" height="200.00px" viewBox="0 0 1024 1024" version="1.1" xmlns="http://www.w3.org/2000/svg"><path d="M514.263 34.002c-266.085 0-481.791 215.698-481.791 481.801 0 266.084 215.706 481.782 481.791 481.782 266.086 0 481.792-215.698 481.792-481.782 0-266.103-215.706-481.801-481.792-481.801z m-0.009 906.621c-234.602 0-424.812-190.191-424.812-424.83 0-234.637 190.21-424.83 424.812-424.83 234.622 0 424.831 190.192 424.831 424.83 0 234.639-190.209 424.83-424.831 424.83z" fill="#F3B387" /><path d="M648.381 560.816c21.156 0 38.308 17.167 38.308 38.324 0 21.173-17.151 38.324-38.308 38.324h-97.72v74.711c0 20.122-16.299 36.404-36.389 36.404-20.106 0-36.404-16.282-36.404-36.404v-74.711h-97.723c-21.156 0-38.308-17.151-38.308-38.324 0-21.157 17.151-38.324 38.308-38.324h97.723v-57.479h-97.723c-21.156 0-38.308-17.151-38.308-38.307 0-21.173 17.151-38.324 38.308-38.324h54.835l-70.017-80.177c-13.918-15.937-12.277-40.146 3.66-54.063 15.937-13.918 40.146-12.293 54.063 3.66l91.584 104.862 91.584-104.862c13.918-15.953 38.126-17.579 54.063-3.66 15.937 13.917 17.579 38.126 3.661 54.063l-70.019 80.177h54.818c21.156 0 38.308 17.151 38.308 38.324 0 21.156-17.151 38.307-38.308 38.307h-97.72v57.479h97.724z" fill="#1C1C1B" /></svg>