<?xml version="1.0" standalone="no"?><!DOCTYPE svg PUBLIC "-//W3C//DTD SVG 1.1//EN" "http://www.w3.org/Graphics/SVG/1.1/DTD/svg11.dtd"><svg class="icon" width="200px" height="200.00px" viewBox="0 0 1024 1024" version="1.1" xmlns="http://www.w3.org/2000/svg"><path fill="#333333" d="M511.991302 69.453838c-244.190535 0-442.114326 197.966771-442.114326 442.150142 0 244.181325 197.923792 442.113303 442.114326 442.113303 244.199745 0 442.131723-197.933001 442.131723-442.113303C954.123025 267.420609 756.191046 69.453838 511.991302 69.453838M511.991302 909.207557c-219.597417 0-397.603577-178.007183-397.603577-397.603577 0-219.632209 178.007183-397.639392 397.603577-397.639392 219.596394 0 397.620973 178.008206 397.620973 397.639392C909.612275 731.200374 731.587696 909.207557 511.991302 909.207557M333.497025 406.968875c4.616134 12.622482 17.647939 19.473517 29.147854 15.300474 11.467169-4.173043 17.074887-17.803481 12.458753-30.425963l-20.509103-54.456263c-4.606925-12.622482-17.656125-19.473517-29.139667-15.301498-11.501962 4.174066-17.074887 17.84032-12.466939 30.461779L333.497025 406.968875zM661.640624 380.923686c8.658194 10.293437 23.269983 12.275581 32.617885 4.41659 9.371438-7.860015 9.953699-22.569018 1.303692-32.862455l-25.39539-26.497491c-8.665357-10.293437-23.2444-12.274558-32.634258-4.415566-9.361205 7.858992-9.910721 22.569018-1.295506 32.896224L661.640624 380.923686zM721.22365 675.214269c-10.603499-6.120394-24.636097-1.635243-31.363312 10.014074l-7.034207 10.536984c-25.479301-32.131815-68.225871-103.34881-68.243267-240.98247l0-9.146311 63.811328 0c13.43908 0 24.357757-9.910721 24.357757-22.116717 0-12.239765-10.918677-22.150486-24.357757-22.150486l-63.934125 0c-0.148379-40.372499-0.400113-80.988546-0.400113-80.988546 0-13.492292-9.874905-24.3772-22.12388-24.3772-12.214183 0-22.115694 10.884908-22.115694 24.3772 0 0 0.270153 40.511669 0.408299 80.988546L431.002756 401.369344c-13.456477 0-24.341385 9.910721-24.341385 22.150486 0 12.205996 10.884908 22.116717 24.341385 22.116717l139.303696 0c0 3.859911 0 7.580652-0.024559 10.95347-0.460488 179.851181 76.344782 272.837992 91.663676 283.928584 8.058536 5.843078 27.54024 19.195178 40.336684 5.009084 1.64343-1.843998 2.765997-3.65218 3.617387-5.460362 0.591471-0.800225 1.38965-1.322112 1.886977-2.225691l20.438495-30.461779C734.935953 695.729511 731.822033 681.297824 721.22365 675.214269M376.721479 691.697685 376.721479 486.427578c0-10.676154-6.28617-19.61371-14.935154-22.950711-3.930519-2.190899-8.511861-3.478218-13.458523-3.478218l-49.777707 0c-14.283308 0-25.854854 10.502192-25.854854 23.472598 0 13.005198 11.570523 23.50739 25.854854 23.50739l33.895995 0L332.44609 730.469734c0 13.456477 9.901511 24.375154 22.150486 24.375154 2.095731 0 4.060479-0.416486 5.998621-1.007957 4.573155-0.661056 9.094122-2.190899 13.031804-5.459339l29.592992-21.662369c10.30981-8.66024 12.317537-23.230074 4.432962-32.618908C400.280034 685.264159 386.857327 684.568311 376.721479 691.697685M554.640658 666.936745l-40.945551 3.304256L513.695107 545.57877l15.134699-0.141216c13.4575 0 24.367991-9.909697 24.367991-22.11467 0-12.240789-10.910491-22.152533-24.367991-22.152533l-74.54581 0.62524c-13.46671 0-24.359804 9.912767-24.359804 22.152533 0 12.204973 10.893094 22.11467 24.359804 22.11467l15.134699-0.13917 0 127.862109-17.073864 1.356904c-13.414521 1.182942-23.438828 11.998265-22.352077 24.167422 1.069355 12.171204 12.806677 21.107737 26.193569 19.926842l102.323457-8.172123c13.386892-1.181919 23.391756-11.998265 22.323425-24.202215C579.782268 674.692383 568.045969 665.789619 554.640658 666.936745" /></svg>