<?xml version="1.0" standalone="no"?><!DOCTYPE svg PUBLIC "-//W3C//DTD SVG 1.1//EN" "http://www.w3.org/Graphics/SVG/1.1/DTD/svg11.dtd"><svg class="icon" width="200px" height="200.00px" viewBox="0 0 1024 1024" version="1.1" xmlns="http://www.w3.org/2000/svg"><path fill="#333333" d="M572.45693 457.173301c0 33.298384-27.086915 60.375066-60.375066 60.375066-33.298384 0-60.375066-27.076682-60.375066-60.375066 0-33.288151 27.076682-60.375066 60.375066-60.375066C545.370015 396.798235 572.45693 423.88515 572.45693 457.173301zM381.02704 457.173301c0 33.298384-27.086915 60.375066-60.375066 60.375066-33.288151 0-60.375066-27.076682-60.375066-60.375066 0-33.288151 27.086915-60.375066 60.375066-60.375066C353.940125 396.798235 381.02704 423.88515 381.02704 457.173301zM765.165953 457.173301c0 33.298384-27.076682 60.375066-60.375066 60.375066-33.288151 0-60.375066-27.076682-60.375066-60.375066 0-33.288151 27.086915-60.375066 60.375066-60.375066C738.089271 396.798235 765.165953 423.88515 765.165953 457.173301zM830.821279 104.96154l-632.495328 0c-55.125505 0-99.966783 44.841278-99.966783 99.966783l0 501.757728c0 55.115272 44.841278 99.966783 99.966783 99.966783l25.163099 0 0 125.856429 142.372591-125.856429 464.959637 0c55.125505 0 99.977016-44.851511 99.977016-99.966783l0-501.757728C930.798295 149.802818 885.946784 104.96154 830.821279 104.96154zM869.399923 706.686051c0 21.264303-17.304108 38.568411-38.578644 38.568411l-475.376894 0c-0.245593-0.010233-0.50142-0.020466-0.747014-0.020466-0.245593 0-0.491187 0-0.73678 0.020466-7.951089 0.173962-15.165398 3.295046-20.61962 8.309246l-48.453548 42.723034 0-18.081821c0.040932-0.665149 0.071631-1.330298 0.071631-2.00568 0-16.833387-13.497409-30.504758-30.259164-30.801517l0-0.143263-56.373938 0c-21.274536 0-38.568411-17.304108-38.568411-38.568411l0-501.757728c0-21.264303 17.293875-38.568411 38.568411-38.568411l632.495328 0c21.274536 0 38.578644 17.304108 38.578644 38.568411L869.399923 706.686051z" /></svg>