<?xml version="1.0" standalone="no"?><!DOCTYPE svg PUBLIC "-//W3C//DTD SVG 1.1//EN" "http://www.w3.org/Graphics/SVG/1.1/DTD/svg11.dtd"><svg class="icon" width="200px" height="200.00px" viewBox="0 0 1024 1024" version="1.1" xmlns="http://www.w3.org/2000/svg"><path fill="#333333" d="M388.266667 669.866667c-4.266667 0-8.533333 0-12.8-4.266667-8.533333-8.533333-8.533333-21.333333 0-29.866667l119.466666-132.266666V337.066667c0-12.8 8.533333-21.333333 21.333334-21.333334s21.333333 8.533333 21.333333 21.333334V512c0 4.266667 0 8.533333-4.266667 12.8l-123.733333 136.533333c-8.533333 4.266667-17.066667 8.533333-21.333333 8.533334z"  /><path fill="#333333" d="M512 853.333333c-187.733333 0-341.333333-153.6-341.333333-341.333333s153.6-341.333333 341.333333-341.333333 341.333333 153.6 341.333333 341.333333-153.6 341.333333-341.333333 341.333333z m0-640c-166.4 0-298.666667 132.266667-298.666667 298.666667s132.266667 298.666667 298.666667 298.666667 298.666667-132.266667 298.666667-298.666667-132.266667-298.666667-298.666667-298.666667z"  /></svg>